<?xml version="1.0" encoding="UTF-8" standalone="no"?>
<!-- Created with Inkscape (http://www.inkscape.org/) -->

<svg
   width="136.79103mm"
   height="136.82184mm"
   viewBox="0 0 136.79103 136.82184"
   version="1.1"
   id="svg1"
   xml:space="preserve"
   inkscape:version="1.4-beta3 (01c8a1c, 2024-08-28, custom)"
   sodipodi:docname="oago.svg"
   xmlns:inkscape="http://www.inkscape.org/namespaces/inkscape"
   xmlns:sodipodi="http://sodipodi.sourceforge.net/DTD/sodipodi-0.dtd"
   xmlns="http://www.w3.org/2000/svg"
   xmlns:svg="http://www.w3.org/2000/svg"><sodipodi:namedview
     id="namedview1"
     pagecolor="#ffffff"
     bordercolor="#000000"
     borderopacity="0.25"
     inkscape:showpageshadow="2"
     inkscape:pageopacity="0.0"
     inkscape:pagecheckerboard="0"
     inkscape:deskcolor="#d1d1d1"
     inkscape:document-units="mm"
     inkscape:zoom="1.7436412"
     inkscape:cx="251.77198"
     inkscape:cy="173.77428"
     inkscape:window-width="1920"
     inkscape:window-height="973"
     inkscape:window-x="2038"
     inkscape:window-y="-11"
     inkscape:window-maximized="1"
     inkscape:current-layer="layer1"
     inkscape:export-bgcolor="#ffffff00" /><defs
     id="defs1" /><g
     inkscape:label="Capa 1"
     inkscape:groupmode="layer"
     id="layer1"
     transform="translate(-38.333485,-79.656646)"><path
       style="fill:#ff0000"
       d="m 38.450819,216.14198 c -0.157923,-3.09872 -0.03537,-6.21381 0.01496,-9.31684 l 26.864443,-0.1323 26.864442,-0.13229 4.449945,-3.96875 c 4.817051,-4.29617 5.685441,-5.01558 5.852511,-4.84851 0.0599,0.0599 -1.177,2.366 -2.748761,5.12458 -1.57176,2.75858 -3.90263,6.86107 -5.17972,9.11664 -1.27709,2.25557 -2.456902,4.18852 -2.621799,4.29543 -0.164897,0.10691 -12.239565,0.19621 -26.832595,0.19844 -21.388904,0.003 -26.558109,-0.0619 -26.663423,-0.3364 z m 71.653331,0.12731 c -0.25771,-0.16638 -0.32988,-5.97313 -0.33567,-27.00419 -0.004,-14.73573 0.0793,-26.93329 0.18519,-27.10568 0.1059,-0.1724 0.51135,-0.67064 0.90099,-1.1072 1.17169,-1.31275 6.23372,-7.20232 7.56181,-8.66511 l 0.90084,-0.99218 h 2.61956 c 1.44075,0 2.68084,0.0992 2.75575,0.22037 0.12821,0.20746 -1.46245,3.41859 -4.99976,10.49525 l -0.13229,27.11979 -0.13229,27.1198 -4.49792,0.0656 c -2.47385,0.036 -4.64565,-0.0298 -4.82621,-0.1464 z m 13.7559,0.041 c -0.26152,-0.10795 -0.33071,-5.76553 -0.33065,-27.03583 l 8e-5,-26.8993 c 1.99623,-3.45777 3.56019,-7.19163 5.76653,-10.52709 0.34895,-0.39417 0.77374,-0.46025 2.5515,-0.39687 l 2.13285,0.076 c -0.24635,11.63906 -0.2574,23.28365 -0.33478,34.925 l -0.19436,29.89792 -4.63021,0.0483 c -2.54661,0.0266 -4.77903,-0.0131 -4.96093,-0.0882 z m 13.87059,-0.0207 c -0.0683,-0.11218 -0.16565,-14.72959 -0.21626,-32.48313 l -0.092,-32.27917 2.26422,-0.0757 c 1.90197,-0.0636 2.33154,-1.2e-4 2.68498,0.39687 2.14396,3.39573 4.06036,6.93513 6.03108,10.43437 l -0.0674,27.0337 -0.0674,27.0337 -5.20649,0.0717 c -2.86357,0.0394 -5.2624,-0.0201 -5.33073,-0.13229 z m 14.16801,-0.1186 c -0.25069,-0.25068 -0.3235,-6.35925 -0.3235,-27.13926 v -26.81577 c -1.32527,-3.5874 -3.9996,-6.82435 -4.88415,-10.57361 0.0841,-0.13604 1.29066,-0.24735 2.68127,-0.24735 h 2.52839 l 0.92154,0.99218 c 2.90266,3.30448 5.71372,6.68868 8.54505,10.05429 l -0.0674,26.95437 -0.0674,26.95437 c -3.04638,-0.0359 -9.33379,-0.17926 -9.33379,-0.17926 z m 13.61725,0.14115 c -0.10033,-0.10033 -0.18242,-12.22673 -0.18242,-26.94756 v -26.76521 c -2.59193,-3.61038 -6.3472,-6.5055 -8.62032,-10.34524 6.19539,3.04025 12.14589,6.67478 18.14654,10.12101 l -0.0668,26.9875 -0.0668,26.9875 c -3.02669,0.16289 -6.66399,0.14179 -9.21029,-0.038 z M 38.509873,202.5477 c -0.160603,-0.16059 -0.176388,-2.6905 -0.176388,-9.34861 H 65.033942 91.7344 l 5.323516,-2.64583 c 2.92794,-1.45521 5.438354,-2.64583 5.578714,-2.64583 0.14835,0 0.25307,1.19078 0.25014,2.84427 l -0.005,2.84427 -2.956024,2.51354 c -1.62581,1.38245 -4.05639,3.43628 -5.40129,4.56406 l -2.445266,2.05052 H 65.382701 c -14.683041,0 -26.775814,-0.0794 -26.872828,-0.17639 z m 10.605382,-12.72501 -10.78177,-0.0691 v -5.42099 -5.42099 l 26.656769,-4e-4 c 14.673747,-2.1e-4 29.139962,-0.12375 32.180752,-0.2748 3.038184,-0.15093 5.559334,-0.23905 5.602564,-0.19583 0.0432,0.0432 0.11066,1.1907 0.14987,2.54996 0.0658,2.27965 0.0262,2.50527 -0.50979,2.90821 -0.3196,0.24025 -2.769374,1.66071 -5.443954,3.15658 l -4.862857,2.71976 -16.104907,0.0584 c -8.857699,0.0321 -20.956703,0.0273 -26.886677,-0.0107 z m 48.352601,-14.67492 c -1.45521,-0.12647 -15.355754,-0.28935 -30.890102,-0.36195 l -28.244269,-0.132 v -4.88257 -4.88257 h 26.947796 26.947796 l 2.354809,1.27407 c 1.29514,0.70075 3.54543,1.90614 5.00064,2.67865 1.455214,0.77251 2.778334,1.50989 2.940274,1.63862 0.34329,0.27288 0.72536,3.91064 0.47834,4.55435 -0.18853,0.49132 -0.99627,0.50786 -5.535284,0.1134 z m -0.39687,-11.71858 -4.894795,-2.48689 -25.135416,-0.0131 c -13.824479,-0.007 -25.939087,-0.089 -26.921353,-0.18174 l -1.785937,-0.16867 v -4.85653 -4.85653 h 26.834907 26.834906 l 0.880198,0.72483 c 1.01908,0.83921 4.50921,3.88137 7.338124,6.39627 1.078,0.95834 2.13545,1.87135 2.34988,2.02891 0.29629,0.2177 0.39741,0.94808 0.42125,3.04271 0.0293,2.57461 -0.004,2.75958 -0.49781,2.80692 -0.29104,0.0279 -2.731824,-1.06842 -5.423954,-2.43621 z m 23.393174,-18.59046 c -0.44891,-0.39591 -2.16357,-1.91047 -3.81036,-3.36568 -1.74694,-1.55109 -3.52106,-3.07133 -5.22917,-4.66544 l -1.12448,-1.05223 v -2.61566 c 0,-1.4386 0.11329,-2.68566 0.25175,-2.77124 0.18446,-0.11404 1.26352,0.35078 10.85571,5.15145 h 26.72544 26.72543 l 0.01,2.44739 c 0.005,1.34607 0.0233,3.47129 0.0402,4.72271 0.0169,1.25143 -0.054,2.41229 -0.15744,2.57969 -0.13984,0.22626 -7.02481,0.30238 -26.82927,0.29662 l -26.64115,-0.008 z M 51.827234,133.69938 v -26.84267 c 0,-24.232928 0.04069,-26.858283 0.418515,-27.003268 0.820264,-0.314766 8.718785,-0.177882 9.053568,0.1569 0.242766,0.242766 0.3175,6.626903 0.3175,27.122308 v 26.80482 c 1.388691,3.63475 4.11412,6.8924 5.101409,10.68035 -0.08939,0.0894 -1.385976,0.16252 -2.88131,0.16252 h -2.71879 c -3.122352,-3.67239 -6.215215,-7.36943 -9.290892,-11.08096 z m 18.140379,9.30387 C 54.287796,115.74717 81.64039,163.19591 64.791817,133.85649 V 106.912 79.967508 l 0.595312,-0.146474 c 3.366814,-0.179035 6.749281,-0.04919 10.120312,0.0041 l 0.172113,1.984375 c 0.09466,1.091406 0.191982,15.676563 0.216265,32.411461 l 0.04415,30.42708 -2.46993,0.075 -2.469929,0.075 z m 9.203466,1.37001 c -0.09029,-0.2353 -0.02881,-2.13285 0.136618,-4.21678 0.198913,-2.50569 0.300786,-13.27897 0.300786,-31.8088 0,-21.44043 0.07455,-28.09439 0.3175,-28.337338 0.334871,-0.334871 8.49625,-0.472294 9.318151,-0.1569 0.377839,0.14499 0.418515,2.778966 0.418515,27.101148 v 26.94055 c -1.509357,2.88283 -3.012944,5.76879 -4.551398,8.63625 l -1.139121,2.11666 -2.318442,0.0765 c -1.937434,0.0639 -2.345421,0.006 -2.482609,-0.3513 z m 9.318752,0.17131 c 1.433086,-3.68426 3.360799,-7.19627 5.141565,-10.73112 v -26.64179 c 0,-14.652984 0.0723,-26.83012 0.1606,-27.060303 0.273421,-0.712516 9.215884,-0.461204 9.576074,-0.101015 0.24275,0.242751 0.3175,6.605305 0.3175,27.025118 v 26.70762 l -1.25677,1.48327 c -2.748462,3.20446 -5.535071,6.37598 -8.314004,9.55399 h -2.739624 c -1.506794,0 -2.805198,-0.10609 -2.885341,-0.23577 z m -36.794889,-2.9764 c -0.605572,-0.35421 -5.153174,-2.90652 -13.361104,-7.76803 l 0.06597,-26.98751 0.06597,-26.987496 h 4.630208 4.630208 l 0.208644,3.175 c 0.114753,1.74625 0.159841,13.782168 0.100195,26.746486 -0.07868,17.10189 -0.02702,23.71933 0.188232,24.11014 0.163174,0.29627 2.142148,2.65219 4.397721,5.23539 2.255573,2.5832 4.140729,4.80074 4.189236,4.92788 0.208775,0.54718 -0.88103,0.0248 -5.115278,-2.45186 z m 60.986458,-14.68344 -2.24896,-1.29267 v -2.37825 -2.37826 c 4.39806,0.16642 5.5392,0.2573 7.40834,0.41357 1.60073,0.13383 15.06626,0.24434 29.9234,0.24559 l 27.16472,0.002 0.10428,9.73667 c 0,0 -35.92073,0.31219 -53.75282,0.30951 -2.88136,-1.52469 -5.7667,-3.04329 -8.59896,-4.65816 z m -2.29411,-9.51088 c -0.0605,-0.15768 -0.0751,-1.28878 -0.0324,-2.51354 l 0.0776,-2.22684 3.57188,-2.13486 c 1.96453,-1.17418 4.37176,-2.57316 5.34941,-3.10886 l 1.77753,-0.97399 h 26.82371 26.8237 l 0.17083,2.57969 c 0.28539,4.30964 0.21474,7.90468 -0.16147,8.21691 -0.48038,0.39868 -64.24844,0.55859 -64.40074,0.16149 z m -0.0299,-11.93917 0.0751,-2.83316 5.29167,-4.56616 5.29167,-4.566162 26.88173,-0.009 26.88173,-0.009 0.17192,2.421896 c 0.21604,3.043683 0.22151,6.401396 0.0113,6.949176 -0.14499,0.37781 -2.76576,0.41851 -26.95125,0.41851 h -26.79069 l -5.15661,2.51354 c -2.83614,1.38245 -5.29726,2.51354 -5.46916,2.51354 -0.22556,0 -0.29165,-0.78853 -0.23745,-2.83316 z m 0.47197,-7.319604 c 0,-0.07848 0.37229,-0.773015 0.82732,-1.543403 0.45502,-0.770388 1.02317,-1.757893 1.26255,-2.194456 2.04789,-3.734836 7.87,-13.854677 8.18178,-14.221354 0.37011,-0.435277 1.98359,-0.463021 26.9277,-0.463021 16.6804,0 26.59234,0.09439 26.6911,0.254187 0.10073,0.162983 0.73141,8.688934 0.14435,9.396309 -0.30422,0.36657 -3.21807,0.409663 -27.0394,0.399885 -21.26319,-0.0087 -26.79346,0.05787 -27.16519,0.327143 -0.25671,0.185956 -2.46094,2.064508 -4.89829,4.17456 -4.18734,3.625046 -4.93192,4.209334 -4.93192,3.87015 z"
       id="path1"
       sodipodi:nodetypes="scccssssscssscssscssccccsscscsscsccccsscssccccsscscsscsccccccscscccccscccssscsscssccccsssssscsccsscccccssssscccccccccssssscccsscssccccssccccsssscssccscccscsscccssssssscsccssscscsscscssscccccsssssssscccsccccscccsscccssccccccccssscssccsssssssssss"
       inkscape:export-filename="oago.png"
       inkscape:export-xdpi="96"
       inkscape:export-ydpi="96" /></g></svg>
